{
    "asset" : {
        "generator" : "Khronos glTF Blender I/O v3.4.50",
        "version" : "2.0"
    },
    "scene" : 0,
    "scenes" : [
        {
            "name" : "Scene",
            "nodes" : [
                0,
                1,
                2,
                3,
                4,
                5,
                6,
                7
            ]
        }
    ],
    "nodes" : [
        {
            "mesh" : 0,
            "name" : "slice3",
            "translation" : [
                1.018741250038147,
                0.004748527426272631,
                -1.8595813512802124
            ]
        },
        {
            "mesh" : 1,
            "name" : "slice4",
            "translation" : [
                -0.6253067851066589,
                0.004395787138491869,
                -1.9683023691177368
            ]
        },
        {
            "mesh" : 2,
            "name" : "slice5",
            "translation" : [
                -1.8550300598144531,
                0.004048631526529789,
                -0.8376793265342712
            ]
        },
        {
            "mesh" : 3,
            "name" : "slice2",
            "translation" : [
                2.083362102508545,
                0.006501646712422371,
                -0.7262324094772339
            ]
        },
        {
            "mesh" : 4,
            "name" : "slice6",
            "translation" : [
                -2.014889717102051,
                0.0057596685364842415,
                0.7566930651664734
            ]
        },
        {
            "mesh" : 5,
            "name" : "slice1",
            "translation" : [
                1.9210375547409058,
                0.004690936300903559,
                0.8633020520210266
            ]
        },
        {
            "mesh" : 6,
            "name" : "slice8",
            "translation" : [
                0.6959149241447449,
                0.00435640336945653,
                1.98948073387146
            ]
        },
        {
            "mesh" : 7,
            "name" : "slice7",
            "translation" : [
                -0.9267058968544006,
                0.004308326635509729,
                1.8652215003967285
            ]
        }
    ],
    "materials" : [
        {
            "doubleSided" : true,
            "name" : "pizza",
            "pbrMetallicRoughness" : {
                "baseColorTexture" : {
                    "index" : 0
                },
                "metallicFactor" : 0,
                "roughnessFactor" : 0.5
            }
        }
    ],
    "meshes" : [
        {
            "name" : "Cube.012",
            "primitives" : [
                {
                    "attributes" : {
                        "POSITION" : 0,
                        "TEXCOORD_0" : 1,
                        "NORMAL" : 2
                    },
                    "indices" : 3,
                    "material" : 0
                }
            ]
        },
        {
            "name" : "Cube.011",
            "primitives" : [
                {
                    "attributes" : {
                        "POSITION" : 4,
                        "TEXCOORD_0" : 5,
                        "NORMAL" : 6
                    },
                    "indices" : 7,
                    "material" : 0
                }
            ]
        },
        {
            "name" : "Cube.006",
            "primitives" : [
                {
                    "attributes" : {
                        "POSITION" : 8,
                        "TEXCOORD_0" : 9,
                        "NORMAL" : 10
                    },
                    "indices" : 11,
                    "material" : 0
                }
            ]
        },
        {
            "name" : "Cube.005",
            "primitives" : [
                {
                    "attributes" : {
                        "POSITION" : 12,
                        "TEXCOORD_0" : 13,
                        "NORMAL" : 14
                    },
                    "indices" : 15,
                    "material" : 0
                }
            ]
        },
        {
            "name" : "Cube.004",
            "primitives" : [
                {
                    "attributes" : {
                        "POSITION" : 16,
                        "TEXCOORD_0" : 17,
                        "NORMAL" : 18
                    },
                    "indices" : 19,
                    "material" : 0
                }
            ]
        },
        {
            "name" : "Cube.003",
            "primitives" : [
                {
                    "attributes" : {
                        "POSITION" : 20,
                        "TEXCOORD_0" : 21,
                        "NORMAL" : 22
                    },
                    "indices" : 23,
                    "material" : 0
                }
            ]
        },
        {
            "name" : "Cube.002",
            "primitives" : [
                {
                    "attributes" : {
                        "POSITION" : 24,
                        "TEXCOORD_0" : 25,
                        "NORMAL" : 26
                    },
                    "indices" : 27,
                    "material" : 0
                }
            ]
        },
        {
            "name" : "Cube",
            "primitives" : [
                {
                    "attributes" : {
                        "POSITION" : 28,
                        "TEXCOORD_0" : 29,
                        "NORMAL" : 30
                    },
                    "indices" : 31,
                    "material" : 0
                }
            ]
        }
    ],
    "textures" : [
        {
            "sampler" : 0,
            "source" : 0
        }
    ],
    "images" : [
        {
            "bufferView" : 4,
            "mimeType" : "image/jpeg",
            "name" : "pizza_texture"
        }
    ],
    "accessors" : [
        {
            "bufferView" : 0,
            "componentType" : 5126,
            "count" : 3362,
            "max" : [
                1.6492069959640503,
                0.13732297718524933,
                1.8899983167648315
            ],
            "min" : [
                -0.9526975750923157,
                -0.09477715194225311,
                -1.5285017490386963
            ],
            "type" : "VEC3"
        },
        {
            "bufferView" : 1,
            "componentType" : 5126,
            "count" : 3362,
            "type" : "VEC2"
        },
        {
            "bufferView" : 2,
            "componentType" : 5126,
            "count" : 3362,
            "type" : "VEC3"
        },
        {
            "bufferView" : 3,
            "componentType" : 5123,
            "count" : 19392,
            "type" : "SCALAR"
        },
        {
            "bufferView" : 5,
            "componentType" : 5126,
            "count" : 3362,
            "max" : [
                0.9300456047058105,
                0.14062920212745667,
                1.9885013103485107
            ],
            "min" : [
                -1.5976576805114746,
                -0.0899234265089035,
                -1.4329233169555664
            ],
            "type" : "VEC3"
        },
        {
            "bufferView" : 6,
            "componentType" : 5126,
            "count" : 3362,
            "type" : "VEC2"
        },
        {
            "bufferView" : 7,
            "componentType" : 5126,
            "count" : 3362,
            "type" : "VEC3"
        },
        {
            "bufferView" : 8,
            "componentType" : 5123,
            "count" : 19392,
            "type" : "SCALAR"
        },
        {
            "bufferView" : 9,
            "componentType" : 5126,
            "count" : 3362,
            "max" : [
                1.9479751586914062,
                0.11969734728336334,
                0.8779850602149963
            ],
            "min" : [
                -1.5375146865844727,
                -0.08795963227748871,
                -1.7454777956008911
            ],
            "type" : "VEC3"
        },
        {
            "bufferView" : 10,
            "componentType" : 5126,
            "count" : 3362,
            "type" : "VEC2"
        },
        {
            "bufferView" : 11,
            "componentType" : 5126,
            "count" : 3362,
            "type" : "VEC3"
        },
        {
            "bufferView" : 12,
            "componentType" : 5123,
            "count" : 19392,
            "type" : "SCALAR"
        },
        {
            "bufferView" : 13,
            "componentType" : 5126,
            "count" : 3362,
            "max" : [
                1.314668893814087,
                0.1448860764503479,
                0.7741643190383911
            ],
            "min" : [
                -1.9809526205062866,
                -0.0775301530957222,
                -1.4203598499298096
            ],
            "type" : "VEC3"
        },
        {
            "bufferView" : 14,
            "componentType" : 5126,
            "count" : 3362,
            "type" : "VEC2"
        },
        {
            "bufferView" : 15,
            "componentType" : 5126,
            "count" : 3362,
            "type" : "VEC3"
        },
        {
            "bufferView" : 16,
            "componentType" : 5123,
            "count" : 19392,
            "type" : "SCALAR"
        },
        {
            "bufferView" : 17,
            "componentType" : 5126,
            "count" : 3362,
            "max" : [
                2.0105676651000977,
                0.14641731977462769,
                1.4230036735534668
            ],
            "min" : [
                -1.3885769844055176,
                -0.08360284566879272,
                -0.7669078707695007
            ],
            "type" : "VEC3"
        },
        {
            "bufferView" : 18,
            "componentType" : 5126,
            "count" : 3362,
            "type" : "VEC2"
        },
        {
            "bufferView" : 19,
            "componentType" : 5126,
            "count" : 3362,
            "type" : "VEC3"
        },
        {
            "bufferView" : 20,
            "componentType" : 5123,
            "count" : 19392,
            "type" : "SCALAR"
        },
        {
            "bufferView" : 21,
            "componentType" : 5126,
            "count" : 3362,
            "max" : [
                1.5207738876342773,
                0.13331535458564758,
                1.740567684173584
            ],
            "min" : [
                -1.8438302278518677,
                -0.09387445449829102,
                -0.8898105621337891
            ],
            "type" : "VEC3"
        },
        {
            "bufferView" : 22,
            "componentType" : 5126,
            "count" : 3362,
            "type" : "VEC2"
        },
        {
            "bufferView" : 23,
            "componentType" : 5126,
            "count" : 3362,
            "type" : "VEC3"
        },
        {
            "bufferView" : 24,
            "componentType" : 5123,
            "count" : 19392,
            "type" : "SCALAR"
        },
        {
            "bufferView" : 25,
            "componentType" : 5126,
            "count" : 3362,
            "max" : [
                1.5256969928741455,
                0.13825251162052155,
                1.3936145305633545
            ],
            "min" : [
                -0.937720000743866,
                -0.09422001987695694,
                -1.9557613134384155
            ],
            "type" : "VEC3"
        },
        {
            "bufferView" : 26,
            "componentType" : 5126,
            "count" : 3362,
            "type" : "VEC2"
        },
        {
            "bufferView" : 27,
            "componentType" : 5126,
            "count" : 3362,
            "type" : "VEC3"
        },
        {
            "bufferView" : 28,
            "componentType" : 5123,
            "count" : 19392,
            "type" : "SCALAR"
        },
        {
            "bufferView" : 29,
            "componentType" : 5126,
            "count" : 3362,
            "max" : [
                0.9787951707839966,
                0.13680900633335114,
                1.5454046726226807
            ],
            "min" : [
                -1.6574403047561646,
                -0.09411311149597168,
                -1.8505874872207642
            ],
            "type" : "VEC3"
        },
        {
            "bufferView" : 30,
            "componentType" : 5126,
            "count" : 3362,
            "type" : "VEC2"
        },
        {
            "bufferView" : 31,
            "componentType" : 5126,
            "count" : 3362,
            "type" : "VEC3"
        },
        {
            "bufferView" : 32,
            "componentType" : 5123,
            "count" : 19392,
            "type" : "SCALAR"
        }
    ],
    "bufferViews" : [
        {
            "buffer" : 0,
            "byteLength" : 40344,
            "byteOffset" : 0,
            "target" : 34962
        },
        {
            "buffer" : 0,
            "byteLength" : 26896,
            "byteOffset" : 40344,
            "target" : 34962
        },
        {
            "buffer" : 0,
            "byteLength" : 40344,
            "byteOffset" : 67240,
            "target" : 34962
        },
        {
            "buffer" : 0,
            "byteLength" : 38784,
            "byteOffset" : 107584,
            "target" : 34963
        },
        {
            "buffer" : 0,
            "byteLength" : 1474641,
            "byteOffset" : 146368
        },
        {
            "buffer" : 0,
            "byteLength" : 40344,
            "byteOffset" : 1621012,
            "target" : 34962
        },
        {
            "buffer" : 0,
            "byteLength" : 26896,
            "byteOffset" : 1661356,
            "target" : 34962
        },
        {
            "buffer" : 0,
            "byteLength" : 40344,
            "byteOffset" : 1688252,
            "target" : 34962
        },
        {
            "buffer" : 0,
            "byteLength" : 38784,
            "byteOffset" : 1728596,
            "target" : 34963
        },
        {
            "buffer" : 0,
            "byteLength" : 40344,
            "byteOffset" : 1767380,
            "target" : 34962
        },
        {
            "buffer" : 0,
            "byteLength" : 26896,
            "byteOffset" : 1807724,
            "target" : 34962
        },
        {
            "buffer" : 0,
            "byteLength" : 40344,
            "byteOffset" : 1834620,
            "target" : 34962
        },
        {
            "buffer" : 0,
            "byteLength" : 38784,
            "byteOffset" : 1874964,
            "target" : 34963
        },
        {
            "buffer" : 0,
            "byteLength" : 40344,
            "byteOffset" : 1913748,
            "target" : 34962
        },
        {
            "buffer" : 0,
            "byteLength" : 26896,
            "byteOffset" : 1954092,
            "target" : 34962
        },
        {
            "buffer" : 0,
            "byteLength" : 40344,
            "byteOffset" : 1980988,
            "target" : 34962
        },
        {
            "buffer" : 0,
            "byteLength" : 38784,
            "byteOffset" : 2021332,
            "target" : 34963
        },
        {
            "buffer" : 0,
            "byteLength" : 40344,
            "byteOffset" : 2060116,
            "target" : 34962
        },
        {
            "buffer" : 0,
            "byteLength" : 26896,
            "byteOffset" : 2100460,
            "target" : 34962
        },
        {
            "buffer" : 0,
            "byteLength" : 40344,
            "byteOffset" : 2127356,
            "target" : 34962
        },
        {
            "buffer" : 0,
            "byteLength" : 38784,
            "byteOffset" : 2167700,
            "target" : 34963
        },
        {
            "buffer" : 0,
            "byteLength" : 40344,
            "byteOffset" : 2206484,
            "target" : 34962
        },
        {
            "buffer" : 0,
            "byteLength" : 26896,
            "byteOffset" : 2246828,
            "target" : 34962
        },
        {
            "buffer" : 0,
            "byteLength" : 40344,
            "byteOffset" : 2273724,
            "target" : 34962
        },
        {
            "buffer" : 0,
            "byteLength" : 38784,
            "byteOffset" : 2314068,
            "target" : 34963
        },
        {
            "buffer" : 0,
            "byteLength" : 40344,
            "byteOffset" : 2352852,
            "target" : 34962
        },
        {
            "buffer" : 0,
            "byteLength" : 26896,
            "byteOffset" : 2393196,
            "target" : 34962
        },
        {
            "buffer" : 0,
            "byteLength" : 40344,
            "byteOffset" : 2420092,
            "target" : 34962
        },
        {
            "buffer" : 0,
            "byteLength" : 38784,
            "byteOffset" : 2460436,
            "target" : 34963
        },
        {
            "buffer" : 0,
            "byteLength" : 40344,
            "byteOffset" : 2499220,
            "target" : 34962
        },
        {
            "buffer" : 0,
            "byteLength" : 26896,
            "byteOffset" : 2539564,
            "target" : 34962
        },
        {
            "buffer" : 0,
            "byteLength" : 40344,
            "byteOffset" : 2566460,
            "target" : 34962
        },
        {
            "buffer" : 0,
            "byteLength" : 38784,
            "byteOffset" : 2606804,
            "target" : 34963
        }
    ],
    "samplers" : [
        {
            "magFilter" : 9729,
            "minFilter" : 9987
        }
    ],
    "buffers" : [
        {
            "byteLength" : 2645588,
            "uri" : "data:application/octet-stream;base64,"
        }
    ]
}
